<svg version="1.0" xmlns="http://www.w3.org/2000/svg"
 width="28" height="28" viewBox="0 0 607.000000 1464.000000">
  <g transform="translate(0.000000,1464.000000) scale(0.100000,-0.100000)" stroke="none">
    <path d="M2246 14559 c-990 -101 -1729 -604 -1857 -1261 -16 -82 -16 -287 0
    -363 32 -154 109 -324 203 -450 239 -317 688 -579 1163 -678 243 -51 365 -62
    705 -62 312 0 380 5 595 42 509 87 951 307 1267 630 405 414 448 948 112 1396
    -238 317 -642 558 -1134 676 -237 57 -377 73 -685 76 -154 2 -320 -1 -369 -6z"/>
    <path d="M5106 12195 c-306 -63 -602 -244 -940 -575 -319 -312 -523 -577
    -1063 -1385 -133 -198 -295 -432 -361 -521 -507 -679 -1039 -1170 -1632 -1502
    -351 -197 -409 -240 -620 -451 -171 -172 -236 -259 -310 -414 -139 -289 -130
    -592 24 -912 83 -171 233 -388 484 -699 226 -279 355 -527 423 -812 66 -278
    66 -634 -1 -960 -66 -319 -156 -589 -396 -1187 -248 -615 -329 -856 -388
    -1152 -107 -539 -64 -915 139 -1220 116 -175 280 -289 480 -335 131 -31 303
    -25 414 14 173 61 328 180 487 376 81 100 273 357 804 1075 244 330 538 725
    652 878 221 296 358 494 480 697 506 844 818 1812 922 2870 25 250 35 432 46
    835 23 865 76 1446 186 2050 160 877 445 1656 854 2335 183 304 234 421 247
    565 19 225 -104 353 -402 422 -89 21 -441 26 -529 8z"/>
  </g>
</svg>
